<svg xmlns="http://www.w3.org/2000/svg" width="202.5" viewBox="0 0 202.5 67.5" height="67.5" version="1.0"><defs><clipPath id="a"><path d="M 194 26 L 201.507812 26 L 201.507812 37 L 194 37 Z M 194 26"/></clipPath></defs><g><g><g><path d="M 17.03125 6.472656 C 17.738281 6.246094 18.222656 5.828125 18.675781 5.28125 C 18.738281 5.214844 18.835938 5.054688 18.769531 4.894531 C 18.546875 5.121094 18.417969 5.246094 18.222656 5.375 C 17.675781 5.796875 17.160156 5.859375 16.386719 5.828125 C 15.003906 5.601562 13.875 5.023438 12.976562 3.929688 C 12.300781 2.996094 11.6875 1.933594 11.203125 0.871094 C 11.171875 0.773438 11.109375 0.613281 11.074219 0.484375 C 11.109375 0.484375 11.109375 0.484375 11.109375 0.449219 C 10.980469 0.191406 10.851562 -0.0976562 10.6875 -0.355469 C 10.59375 -0.546875 10.527344 -0.644531 10.625 -0.804688 C 10.464844 -1 10.367188 -1.160156 10.335938 -1.320312 C 10.398438 -1.738281 10.140625 -2.09375 9.980469 -2.480469 C 10.882812 -2.769531 11.71875 -3.1875 12.492188 -3.542969 C 13.296875 -3.894531 13.941406 -4.347656 14.648438 -4.957031 C 15.324219 -5.539062 16.035156 -6.246094 16.453125 -7.117188 C 16.675781 -7.566406 16.902344 -8.015625 17.03125 -8.5 C 17.257812 -9.53125 17.257812 -10.398438 16.96875 -11.332031 C 16.773438 -11.914062 16.582031 -12.363281 16.257812 -12.75 C 15.648438 -13.554688 14.90625 -14.039062 14.132812 -14.457031 C 13.585938 -14.714844 13.007812 -14.808594 12.429688 -14.808594 C 11.589844 -14.808594 10.753906 -14.808594 9.917969 -14.679688 C 8.855469 -14.554688 7.855469 -14.230469 6.921875 -13.714844 C 6.019531 -13.234375 5.183594 -12.652344 4.378906 -12.007812 C 3.671875 -11.429688 2.960938 -10.753906 2.316406 -10.011719 C 2.125 -9.722656 1.933594 -9.464844 1.804688 -9.144531 C 1.707031 -8.886719 1.578125 -8.53125 1.640625 -8.273438 C 1.707031 -7.792969 1.933594 -7.46875 2.0625 -7.050781 C 2.15625 -6.953125 2.445312 -6.859375 2.511719 -6.953125 C 2.832031 -7.210938 3.027344 -7.4375 2.929688 -7.757812 C 2.898438 -8.339844 3.058594 -8.726562 3.316406 -9.144531 C 3.605469 -9.5625 3.863281 -9.882812 4.152344 -10.269531 C 4.734375 -11.074219 5.472656 -11.589844 6.214844 -12.171875 C 6.277344 -12.203125 6.375 -12.203125 6.40625 -12.234375 C 7.148438 -12.554688 7.792969 -13.070312 8.5 -13.296875 C 8.597656 -13.296875 8.628906 -13.363281 8.726562 -13.425781 C 8.949219 -13.457031 9.078125 -13.585938 9.335938 -13.617188 C 9.882812 -13.875 10.496094 -13.910156 11.140625 -13.941406 C 11.621094 -14.070312 12.136719 -14.101562 12.621094 -14.101562 C 13.554688 -14.101562 14.390625 -13.910156 15.066406 -13.234375 C 15.710938 -12.621094 16.097656 -11.945312 16.292969 -11.109375 C 16.515625 -9.722656 16.164062 -8.53125 15.453125 -7.4375 C 15.230469 -6.953125 14.746094 -6.566406 14.488281 -6.054688 C 14.488281 -6.019531 14.457031 -5.957031 14.425781 -5.957031 C 14.132812 -5.925781 14.039062 -5.601562 13.875 -5.410156 C 13.714844 -5.246094 13.585938 -5.085938 13.363281 -4.957031 C 12.976562 -4.734375 12.621094 -4.410156 12.300781 -4.152344 C 12.136719 -4.089844 11.914062 -3.929688 11.75 -3.863281 C 11.621094 -3.765625 11.492188 -3.734375 11.398438 -3.671875 C 10.945312 -3.25 10.367188 -2.996094 9.722656 -2.832031 C 9.59375 -2.960938 9.402344 -2.996094 9.207031 -3.027344 C 8.886719 -3.125 8.53125 -2.929688 8.339844 -2.640625 C 8.273438 -2.511719 8.210938 -2.382812 8.210938 -2.222656 C 8.179688 -2.125 8.179688 -1.996094 8.179688 -1.933594 C 8.5625 -0.902344 8.984375 0.160156 9.59375 1.125 C 9.625 1.160156 9.660156 1.320312 9.660156 1.449219 C 9.949219 1.964844 10.175781 2.480469 10.464844 2.960938 C 11.074219 3.960938 11.71875 4.828125 12.621094 5.539062 C 13.941406 6.472656 15.421875 6.890625 17.03125 6.472656 Z M 5.183594 4.894531 C 4.539062 3.992188 4.539062 3.027344 4.796875 1.996094 C 4.992188 1.320312 5.121094 0.578125 5.28125 0 C 5.34375 -0.386719 5.410156 -0.675781 5.570312 -0.964844 C 5.796875 -1.609375 6.019531 -2.125 6.277344 -2.703125 C 6.953125 -4.089844 7.628906 -5.472656 8.210938 -6.824219 C 8.660156 -7.695312 9.046875 -8.46875 9.433594 -9.371094 C 9.625 -9.660156 9.722656 -10.011719 9.882812 -10.304688 C 9.980469 -10.496094 9.980469 -10.753906 10.011719 -10.980469 C 10.011719 -11.332031 9.691406 -11.6875 9.371094 -11.6875 C 8.726562 -11.71875 8.082031 -11.65625 7.535156 -11.429688 C 7.339844 -10.914062 7.5 -10.558594 7.628906 -10.238281 C 7.535156 -9.851562 7.535156 -9.691406 7.371094 -9.433594 C 7.050781 -8.46875 6.664062 -7.597656 6.34375 -6.695312 C 6.148438 -6.277344 6.054688 -5.957031 5.859375 -5.632812 C 5.667969 -5.34375 5.472656 -5.152344 5.632812 -4.699219 C 5.539062 -4.25 5.375 -3.894531 5.085938 -3.476562 C 5.085938 -3.089844 4.796875 -2.640625 4.605469 -2.253906 L 4.605469 -2.285156 C 4.507812 -1.640625 4.21875 -1.0625 3.992188 -0.515625 C 3.929688 -0.355469 3.894531 -0.289062 3.929688 -0.160156 C 3.929688 0.289062 3.832031 0.707031 3.574219 1.0625 L 3.25 2.316406 C 3.285156 2.511719 3.316406 2.671875 3.316406 2.800781 C 3.316406 3.347656 3.542969 3.894531 3.734375 4.410156 C 4.347656 5.699219 5.28125 5.183594 5.183594 4.894531 Z M 5.183594 4.894531" transform="translate(2.034 35.077)"/></g></g></g><g><g><g><path d="M 12.203125 -4.28125 L 12.074219 -4.570312 L 11.976562 -4.636719 C 11.65625 -4.441406 11.398438 -4.28125 11.171875 -4.089844 C 10.429688 -3.605469 10.496094 -3.671875 9.722656 -3.1875 C 9.273438 -2.867188 8.789062 -2.574219 8.371094 -2.316406 C 7.921875 -1.996094 7.40625 -1.609375 6.890625 -1.382812 C 6.761719 -1.320312 6.632812 -1.320312 6.535156 -1.289062 C 6.4375 -1.253906 6.375 -1.253906 6.308594 -1.289062 C 6.148438 -1.382812 6.054688 -1.511719 6.019531 -1.640625 C 5.828125 -2.09375 5.828125 -2.574219 5.925781 -3.027344 C 5.957031 -3.089844 5.957031 -3.15625 5.988281 -3.1875 C 6.085938 -3.445312 6.054688 -3.800781 6.054688 -3.800781 C 5.988281 -4.023438 5.859375 -4.183594 5.667969 -4.25 C 5.28125 -4.28125 5.054688 -4.023438 4.796875 -3.992188 C 4.957031 -4.3125 5.214844 -4.605469 5.121094 -5.054688 C 4.992188 -5.796875 4.21875 -5.925781 3.542969 -6.054688 C 2.929688 -5.988281 2.382812 -5.601562 1.996094 -5.183594 C 1.609375 -4.699219 1.191406 -4.3125 0.835938 -3.765625 C 0.773438 -3.703125 0.707031 -3.542969 0.578125 -3.378906 L 0.355469 -2.996094 C 0.289062 -2.769531 0.191406 -2.609375 0.160156 -2.414062 C 0.160156 -2.382812 0.160156 -2.382812 0.128906 -2.351562 C 0.0625 -2.15625 0 -1.996094 -0.0976562 -1.769531 C -0.226562 -1.289062 -0.128906 -0.871094 0.160156 -0.484375 C 0.355469 -0.386719 0.613281 -0.226562 0.675781 -0.160156 C 0.773438 -0.128906 0.871094 -0.128906 0.933594 -0.128906 C 1.417969 0.0625 1.964844 0.0625 2.480469 -0.191406 C 2.996094 -0.417969 3.507812 -0.835938 3.894531 -1.125 C 3.960938 -1.160156 3.992188 -1.253906 4.058594 -1.320312 C 4.28125 -1.320312 4.28125 -1.640625 4.507812 -1.769531 C 4.539062 -1.707031 4.539062 -1.640625 4.605469 -1.609375 C 4.699219 -1.449219 4.667969 -1.382812 4.863281 -1.191406 C 4.992188 -0.902344 5.214844 -0.773438 5.410156 -0.515625 C 5.503906 -0.484375 5.570312 -0.355469 5.667969 -0.320312 C 5.730469 -0.257812 5.925781 -0.257812 5.988281 -0.226562 C 6.117188 -0.191406 6.40625 -0.257812 6.535156 -0.257812 C 6.632812 -0.257812 6.792969 -0.320312 6.824219 -0.320312 C 6.921875 -0.320312 7.082031 -0.386719 7.148438 -0.417969 C 7.308594 -0.515625 7.40625 -0.484375 7.597656 -0.578125 C 7.921875 -0.804688 8.210938 -0.871094 8.46875 -1.160156 L 9.242188 -1.738281 L 9.722656 -2.15625 C 9.820312 -2.1875 10.046875 -2.445312 10.078125 -2.480469 C 10.238281 -2.542969 10.367188 -2.703125 10.464844 -2.800781 C 10.558594 -2.867188 10.785156 -2.960938 10.945312 -3.089844 C 11.367188 -3.378906 11.878906 -3.800781 12.203125 -4.28125 Z M 4.347656 -3.378906 C 3.863281 -2.867188 3.636719 -2.480469 3.15625 -1.964844 C 2.832031 -1.609375 2.542969 -1.382812 2.125 -1.222656 C 1.804688 -1.09375 1.222656 -1.0625 0.871094 -1.0625 C 1.03125 -1.707031 1.320312 -2.253906 1.609375 -2.769531 C 1.964844 -3.378906 3.089844 -4.894531 4.058594 -5.054688 C 4.023438 -5.023438 3.765625 -3.605469 4.476562 -3.542969 L 4.507812 -3.542969 C 4.507812 -3.542969 4.378906 -3.378906 4.347656 -3.378906 Z M 4.347656 -3.378906" transform="translate(19.961 35.077)"/></g></g></g><g><g><g><path d="M 1.320312 2.609375 C 1.640625 2.414062 2.027344 2.351562 2.414062 2.125 C 2.609375 1.933594 2.867188 1.707031 3.027344 1.417969 C 3.347656 1.222656 3.574219 0.902344 3.800781 0.644531 C 3.960938 0.449219 4.183594 0.257812 4.347656 0.03125 C 4.539062 -0.289062 4.765625 -0.546875 4.828125 -0.964844 C 4.828125 -0.964844 4.863281 -1 4.925781 -1 C 5.183594 -1.125 5.246094 -1.382812 5.34375 -1.609375 C 5.441406 -1.769531 5.472656 -1.933594 5.859375 -2.867188 L 6.277344 -3.960938 C 6.375 -4.28125 6.34375 -4.636719 6.183594 -4.863281 C 6.117188 -4.894531 6.117188 -4.957031 6.085938 -5.023438 C 5.988281 -5.085938 5.957031 -5.246094 5.890625 -5.246094 C 5.796875 -5.246094 5.699219 -5.085938 5.632812 -4.957031 C 5.472656 -4.605469 5.3125 -4.28125 5.214844 -4.023438 C 4.925781 -3.542969 4.636719 -3.089844 4.378906 -2.609375 C 4.152344 -2.09375 3.832031 -1.609375 3.414062 -1.160156 C 3.25 -0.933594 3.058594 -0.644531 2.867188 -0.484375 C 2.671875 -0.191406 2.414062 0.0976562 2.125 0.320312 C 1.867188 0.515625 1.609375 0.804688 1.289062 0.804688 C 1.382812 0.355469 1.417969 -0.0625 1.480469 -0.515625 C 1.707031 -1.191406 1.835938 -1.804688 1.996094 -2.480469 C 2.09375 -3.125 2.285156 -3.765625 2.222656 -4.410156 C 2.15625 -4.476562 2.09375 -4.539062 2.09375 -4.605469 C 2.027344 -4.667969 2.0625 -4.765625 2.027344 -4.828125 C 1.804688 -4.894531 1.511719 -5.121094 1.351562 -5.085938 L 1.0625 -3.894531 C 0.964844 -3.605469 0.933594 -3.378906 0.902344 -3.125 C 0.804688 -2.832031 0.707031 -2.445312 0.707031 -2.125 C 0.613281 -1.867188 0.449219 -1.546875 0.449219 -1.191406 C 0.417969 -0.933594 0.289062 -0.742188 0.226562 -0.417969 C 0.257812 0.0625 0.191406 0.546875 0.191406 1.0625 C 0.191406 1.125 0.226562 1.289062 0.257812 1.480469 C 0.386719 1.707031 0.355469 1.996094 0.578125 1.996094 C 0.613281 1.996094 0.804688 2.351562 0.804688 2.382812 Z M 1.320312 2.609375" transform="translate(30.39 35.077)"/></g></g></g><g><g><g><path d="M 2.671875 -7.050781 C 2.867188 -6.921875 3.058594 -6.921875 3.21875 -6.988281 C 3.507812 -7.179688 3.800781 -7.371094 3.929688 -7.726562 C 4.058594 -8.082031 3.929688 -8.433594 3.832031 -8.757812 C 3.765625 -8.984375 3.574219 -9.078125 3.21875 -9.046875 C 3.21875 -9.046875 3.089844 -9.046875 3.058594 -9.015625 C 2.640625 -8.789062 2.285156 -8.5625 2.125 -8.082031 C 2.0625 -7.757812 2.125 -7.5 2.316406 -7.277344 C 2.414062 -7.179688 2.574219 -7.117188 2.671875 -7.050781 Z M 7.019531 -3.605469 C 7.179688 -3.894531 7.148438 -4.089844 7.082031 -4.152344 C 6.664062 -3.734375 6.246094 -3.378906 5.859375 -3.027344 C 5.375 -2.574219 4.925781 -2.0625 4.410156 -1.609375 C 3.929688 -1.125 3.347656 -0.675781 2.832031 -0.226562 C 2.574219 0 2.285156 0.128906 1.933594 0.226562 C 1.964844 -0.0976562 2.0625 -0.386719 2.0625 -0.675781 C 2.09375 -1 2.285156 -1.289062 2.1875 -1.578125 C 2.1875 -1.640625 2.222656 -1.675781 2.253906 -1.738281 C 2.285156 -1.867188 2.351562 -1.996094 2.414062 -2.125 C 2.542969 -2.542969 2.671875 -2.929688 2.769531 -3.316406 C 2.832031 -3.476562 2.898438 -3.636719 2.898438 -3.832031 C 2.929688 -3.992188 2.929688 -4.183594 2.867188 -4.3125 C 2.800781 -4.441406 2.640625 -4.570312 2.511719 -4.667969 C 2.414062 -4.828125 2.1875 -4.925781 2.09375 -5.085938 C 1.996094 -5.246094 1.898438 -5.183594 1.804688 -5.152344 C 1.675781 -5.152344 1.640625 -5.054688 1.675781 -4.925781 L 1.675781 -4.667969 C 1.511719 -4.058594 1.351562 -3.507812 1.222656 -2.929688 C 1.09375 -2.511719 0.964844 -2.09375 0.902344 -1.675781 C 0.742188 -1.09375 0.613281 -0.484375 0.675781 0.0625 C 0.707031 0.191406 0.804688 0.257812 0.835938 0.386719 C 0.902344 0.449219 0.964844 0.546875 1 0.644531 C 1.03125 0.707031 1.03125 0.804688 1.09375 0.835938 C 1.320312 1 1.449219 1.289062 1.769531 1.351562 C 1.996094 1.417969 2.15625 1.511719 2.414062 1.449219 C 2.640625 1.320312 2.867188 1.222656 3.058594 1.125 C 3.25 1.0625 3.445312 1.03125 3.574219 0.902344 C 3.765625 0.773438 3.929688 0.644531 4.058594 0.484375 C 4.25 0.226562 4.476562 -0.03125 4.734375 -0.191406 L 4.894531 -0.355469 C 4.957031 -0.417969 4.992188 -0.515625 5.054688 -0.578125 L 5.410156 -1.09375 C 5.859375 -1.738281 5.925781 -2.027344 6.054688 -2.1875 C 6.246094 -2.414062 6.953125 -3.542969 6.988281 -3.574219 Z M 7.019531 -3.605469" transform="translate(37.728 35.077)"/></g></g></g><g><g><g><path d="M 0.964844 1.480469 C 1.222656 1.546875 1.351562 1.511719 1.480469 1.253906 C 1.511719 1.222656 1.511719 1.191406 1.578125 1.160156 L 1.675781 0.933594 C 1.835938 0.933594 1.964844 0.835938 2.09375 0.675781 C 2.253906 0.320312 2.867188 -0.871094 2.898438 -0.871094 L 3.058594 -1.09375 C 2.996094 -1.09375 3.1875 -1.253906 3.21875 -1.351562 C 3.316406 -1.511719 3.542969 -1.546875 3.507812 -1.804688 C 3.734375 -1.898438 3.894531 -2.0625 3.960938 -2.316406 C 4.183594 -2.351562 4.3125 -2.445312 4.410156 -2.800781 C 4.441406 -2.703125 4.507812 -2.671875 4.570312 -2.609375 C 4.570312 -2.414062 4.539062 -2.1875 4.539062 -2.027344 C 4.476562 -1.351562 4.605469 -0.742188 4.765625 -0.191406 C 4.894531 0.226562 5.152344 0.515625 5.441406 0.742188 C 5.601562 0.933594 5.699219 0.933594 5.925781 1.03125 L 5.957031 1.03125 C 6.4375 0.933594 6.988281 0.933594 7.4375 0.613281 C 7.726562 0.417969 8.015625 0.191406 8.210938 -0.03125 C 8.433594 -0.257812 8.691406 -0.449219 8.820312 -0.707031 C 8.820312 -0.742188 8.917969 -0.742188 8.949219 -0.773438 C 8.917969 -0.804688 8.917969 -0.871094 8.917969 -0.871094 C 9.078125 -0.964844 9.078125 -1.0625 9.113281 -1.125 L 9.660156 -1.769531 C 9.789062 -1.867188 9.917969 -2.027344 9.980469 -2.15625 C 10.046875 -2.285156 10.046875 -2.414062 10.109375 -2.574219 L 10.398438 -3.027344 C 10.558594 -3.21875 10.429688 -3.347656 10.238281 -3.347656 L 7.246094 -0.484375 C 7.082031 -0.355469 6.890625 -0.257812 6.695312 -0.191406 C 6.148438 0.0976562 6.054688 0.128906 6.019531 0.160156 L 5.925781 0.160156 C 5.890625 0.128906 5.796875 0.03125 5.796875 -0.03125 L 5.699219 -0.355469 C 5.699219 -0.578125 5.699219 -0.835938 5.667969 -1.0625 C 5.699219 -1.160156 5.667969 -1.253906 5.667969 -1.320312 C 5.699219 -1.578125 5.730469 -1.835938 5.730469 -2.09375 C 5.699219 -2.382812 5.632812 -2.671875 5.539062 -2.960938 C 5.539062 -3.058594 5.570312 -3.15625 5.539062 -3.15625 C 5.410156 -3.21875 5.441406 -3.378906 5.410156 -3.542969 C 4.894531 -3.800781 4.828125 -3.863281 4.734375 -3.863281 C 4.636719 -3.894531 4.570312 -3.929688 4.3125 -3.929688 C 3.992188 -3.894531 3.960938 -3.894531 3.800781 -3.800781 C 3.542969 -3.605469 3.316406 -3.378906 3.125 -3.15625 C 2.738281 -2.769531 2.382812 -2.316406 2.0625 -1.835938 C 2.0625 -1.804688 2.0625 -1.835938 2.027344 -1.804688 C 2.0625 -1.867188 2.0625 -1.898438 2.0625 -1.933594 C 2.125 -2.15625 2.222656 -2.351562 2.285156 -2.574219 C 2.351562 -2.800781 2.351562 -2.960938 2.382812 -3.1875 C 2.414062 -3.445312 2.445312 -3.671875 2.511719 -3.929688 C 2.511719 -3.960938 2.511719 -3.960938 2.480469 -3.992188 C 2.253906 -4.3125 1.964844 -4.605469 1.546875 -4.636719 C 1.351562 -4.667969 1.289062 -4.605469 1.253906 -4.378906 C 1.222656 -4.183594 1.191406 -3.992188 1.289062 -3.894531 C 1.320312 -3.894531 1.320312 -3.832031 1.320312 -3.800781 C 1.253906 -3.414062 1.222656 -3.058594 1.125 -2.671875 C 1 -2.09375 0.804688 -1.511719 0.644531 -0.964844 C 0.515625 -0.386719 0.449219 0.128906 0.355469 0.675781 C 0.289062 0.933594 0.773438 1.417969 0.964844 1.480469 Z M 0.964844 1.480469" transform="translate(44.229 35.077)"/></g></g></g><g><g><g><path d="M 16.097656 -20.21875 L 16.066406 -20.800781 L 15.96875 -20.992188 C 16.035156 -21.023438 16.066406 -21.121094 16.066406 -21.121094 C 15.96875 -21.378906 16.164062 -21.667969 16.097656 -21.925781 C 15.871094 -22.3125 15.808594 -22.699219 15.453125 -22.890625 C 15.003906 -23.214844 14.457031 -23.375 13.941406 -23.246094 C 13.234375 -23.117188 12.621094 -22.859375 12.171875 -22.34375 C 12.042969 -22.152344 11.878906 -21.957031 11.75 -21.796875 C 11.621094 -21.636719 11.367188 -21.476562 11.367188 -21.183594 C 11.367188 -21.152344 11.367188 -21.152344 11.332031 -21.121094 C 11.238281 -20.960938 11.074219 -20.800781 10.980469 -20.636719 C 10.945312 -20.636719 10.914062 -20.605469 10.914062 -20.574219 C 10.753906 -20.25 10.625 -19.960938 10.429688 -19.738281 C 10.398438 -19.703125 10.398438 -19.703125 10.398438 -19.640625 L 10.109375 -19.09375 C 10.078125 -18.964844 9.980469 -18.800781 9.851562 -18.640625 C 9.722656 -18.417969 9.691406 -18.222656 9.59375 -18.03125 C 9.402344 -17.675781 9.273438 -17.386719 9.113281 -17.097656 L 8.820312 -16.226562 C 8.691406 -16.035156 8.597656 -15.742188 8.433594 -15.261719 C 8.144531 -14.488281 7.855469 -13.746094 7.664062 -12.941406 C 7.46875 -12.394531 6.988281 -10.65625 6.953125 -10.558594 C 6.859375 -10.078125 6.792969 -9.660156 6.695312 -9.242188 C 6.535156 -8.660156 6.4375 -8.179688 6.308594 -7.628906 L 5.988281 -5.472656 C 5.988281 -5.34375 5.957031 -5.246094 5.925781 -5.183594 C 5.925781 -5.152344 5.859375 -5.023438 5.859375 -4.957031 C 5.632812 -4.410156 5.632812 -4.507812 5.632812 -4.476562 L 5.121094 -3.542969 L 4.25 -2.316406 C 4.089844 -2.09375 3.832031 -1.933594 3.703125 -1.675781 C 3.445312 -1.449219 3.285156 -1.125 2.996094 -0.902344 C 2.738281 -0.644531 2.574219 -0.546875 2.285156 -0.386719 C 2.0625 -0.257812 1.707031 -0.0625 1.289062 -0.257812 C 1.320312 -0.644531 1.160156 -1 1.382812 -1.417969 C 1.449219 -1.480469 1.449219 -1.609375 1.480469 -1.707031 C 1.480469 -1.867188 1.578125 -2.285156 1.675781 -2.609375 C 1.738281 -2.703125 1.738281 -2.769531 1.738281 -2.832031 C 1.769531 -2.867188 1.898438 -3.125 1.964844 -3.25 C 2.1875 -3.734375 2.542969 -4.25 2.960938 -4.605469 C 3.089844 -4.765625 3.25 -4.828125 3.414062 -4.957031 C 3.960938 -5.152344 4.25 -5.085938 4.378906 -4.765625 C 4.441406 -4.3125 4.636719 -4.121094 5.054688 -4.152344 L 5.121094 -4.152344 C 6.148438 -5.054688 5.152344 -5.828125 5.152344 -5.828125 C 5.152344 -5.828125 3.285156 -6.730469 1.351562 -4.570312 L 1.160156 -4.28125 C 1.03125 -4.121094 0.902344 -3.863281 0.742188 -3.542969 C 0.675781 -3.542969 0.675781 -3.507812 0.675781 -3.507812 C 0.613281 -3.347656 0.449219 -2.867188 0.320312 -2.542969 L 0.257812 -2.542969 L 0.257812 -2.511719 C 0.191406 -2.125 0.160156 -1.835938 0.03125 -1.480469 C -0.03125 -1.09375 0.226562 -0.835938 0.289062 -0.546875 C 0.320312 -0.417969 0.289062 -0.289062 0.320312 -0.226562 C 0.449219 0 0.515625 0.257812 0.644531 0.355469 C 0.871094 0.515625 1.125 0.742188 1.351562 0.773438 C 1.835938 0.902344 2.351562 0.933594 2.867188 0.613281 C 3.21875 0.417969 3.507812 0.257812 3.800781 0.0625 C 4.023438 -0.191406 4.28125 -0.449219 4.507812 -0.675781 C 4.699219 -0.933594 4.765625 -0.902344 5.085938 -1.351562 C 5.152344 -1.449219 5.214844 -1.609375 5.28125 -1.675781 L 5.632812 -2.1875 C 5.699219 -1.964844 5.859375 -1.578125 5.957031 -1.125 L 5.988281 -1 L 6.085938 -0.902344 C 6.214844 -0.546875 6.375 -0.355469 6.761719 -0.0625 C 7.117188 0.128906 7.597656 0.289062 8.050781 0.289062 C 8.273438 0.289062 8.5 0.355469 8.691406 0.355469 C 8.886719 0.355469 9.046875 0.355469 9.207031 0.289062 C 9.496094 0.257812 9.753906 0.160156 9.980469 0.0625 C 10.269531 -0.0976562 11.042969 -0.289062 11.367188 -0.484375 C 11.75 -0.835938 11.785156 -0.871094 12.234375 -1.222656 C 12.234375 -1.289062 12.136719 -1.320312 12.136719 -1.320312 C 12.394531 -1.546875 12.523438 -1.707031 12.75 -1.933594 C 12.683594 -1.933594 13.105469 -2.480469 13.070312 -2.511719 C 13.007812 -2.511719 13.007812 -2.542969 12.941406 -2.511719 C 12.78125 -2.382812 12.621094 -2.316406 12.460938 -2.222656 C 11.65625 -1.867188 10.914062 -1.382812 10.109375 -1.09375 C 9.59375 -0.933594 9.113281 -0.773438 8.660156 -0.773438 C 8.242188 -0.742188 8.082031 -0.742188 7.664062 -0.871094 C 7.535156 -0.933594 7.40625 -1 7.277344 -1.191406 C 7.210938 -1.222656 7.148438 -1.417969 7.148438 -1.449219 L 7.050781 -1.804688 L 6.890625 -2.929688 C 6.890625 -3.058594 6.792969 -3.21875 6.859375 -3.285156 C 6.953125 -3.445312 6.988281 -3.542969 6.921875 -3.605469 C 6.988281 -3.636719 6.988281 -3.734375 6.988281 -3.765625 L 6.988281 -3.894531 C 6.988281 -3.960938 6.988281 -4.023438 7.050781 -4.121094 L 8.46875 -5.925781 C 8.5 -5.988281 8.53125 -6.085938 8.597656 -6.117188 C 8.660156 -6.214844 8.660156 -6.277344 8.726562 -6.34375 C 8.789062 -6.34375 8.789062 -6.34375 8.949219 -6.503906 C 9.078125 -6.695312 9.207031 -6.859375 9.371094 -6.953125 C 9.433594 -7.050781 9.625 -7.148438 9.851562 -7.535156 L 10.109375 -7.984375 C 10.207031 -7.953125 10.269531 -8.179688 10.335938 -8.144531 C 10.367188 -8.242188 10.59375 -8.660156 10.753906 -8.984375 C 10.945312 -9.242188 11.238281 -9.753906 11.269531 -9.753906 C 11.460938 -9.949219 12.78125 -11.75 12.621094 -11.816406 L 13.234375 -12.554688 C 13.394531 -12.75 13.457031 -12.847656 13.523438 -13.296875 L 13.585938 -13.296875 C 13.617188 -13.425781 13.714844 -13.554688 13.78125 -13.652344 L 14.132812 -14.039062 C 14.261719 -14.261719 14.390625 -14.585938 14.390625 -14.714844 C 14.519531 -14.84375 14.554688 -15.003906 14.617188 -15.292969 C 14.714844 -15.324219 14.746094 -15.359375 14.777344 -15.359375 C 14.777344 -15.519531 14.777344 -15.710938 14.808594 -15.871094 L 14.84375 -16.035156 L 14.84375 -16.066406 C 14.90625 -16.097656 14.972656 -16.097656 15.066406 -16.097656 L 15.230469 -16.550781 C 15.582031 -16.710938 15.519531 -17.257812 15.421875 -17.449219 C 15.421875 -17.449219 15.519531 -17.484375 15.519531 -17.546875 C 15.617188 -17.996094 15.742188 -18.351562 15.808594 -18.738281 L 15.96875 -19.351562 C 16.066406 -19.574219 16.164062 -19.898438 16.097656 -20.21875 Z M 14.84375 -20.925781 C 14.714844 -20.285156 14.585938 -19.738281 14.488281 -19.09375 C 14.425781 -18.675781 14.296875 -18.253906 14.132812 -17.804688 L 13.84375 -17.160156 L 13.328125 -15.777344 C 13.167969 -15.390625 12.976562 -15.066406 12.75 -14.714844 C 12.429688 -14.070312 12.042969 -13.457031 11.71875 -12.847656 C 11.527344 -12.554688 11.300781 -12.300781 11.171875 -12.007812 C 10.945312 -11.6875 10.722656 -11.300781 10.496094 -10.980469 L 9.753906 -9.949219 L 9.144531 -9.078125 C 8.917969 -8.820312 8.757812 -8.53125 8.5625 -8.339844 C 8.273438 -7.953125 7.984375 -7.535156 7.695312 -7.210938 C 7.566406 -7.050781 7.46875 -6.890625 7.339844 -6.761719 C 7.339844 -6.792969 7.371094 -7.179688 7.46875 -7.371094 L 7.566406 -7.824219 C 7.664062 -7.984375 7.726562 -8.179688 7.824219 -8.339844 C 7.855469 -8.371094 7.824219 -8.402344 7.824219 -8.46875 C 7.824219 -8.46875 7.726562 -8.5 7.726562 -8.53125 C 7.824219 -8.726562 7.695312 -8.984375 7.886719 -9.242188 C 7.886719 -9.242188 7.886719 -9.273438 7.921875 -9.335938 C 7.953125 -9.433594 7.984375 -9.5625 8.082031 -9.722656 C 7.984375 -9.753906 7.921875 -9.949219 7.953125 -10.078125 C 8.050781 -10.304688 8.179688 -10.496094 8.210938 -10.722656 C 8.339844 -10.914062 8.371094 -11.171875 8.402344 -11.367188 C 8.46875 -11.6875 8.597656 -11.847656 8.691406 -12.171875 C 8.757812 -12.363281 8.789062 -12.554688 8.855469 -12.78125 C 8.855469 -12.847656 8.820312 -12.878906 8.820312 -12.941406 C 9.078125 -13.007812 9.015625 -13.363281 9.175781 -13.554688 L 9.371094 -14.261719 C 9.496094 -14.648438 9.625 -15.035156 9.789062 -15.359375 C 9.851562 -15.582031 9.882812 -15.839844 9.949219 -16.035156 C 10.011719 -16.195312 10.078125 -16.257812 10.207031 -16.421875 C 10.238281 -16.550781 10.304688 -16.675781 10.335938 -16.871094 C 10.464844 -17.0625 10.558594 -17.257812 10.6875 -17.484375 C 10.816406 -17.675781 10.882812 -17.902344 10.980469 -18.125 C 11.074219 -18.320312 11.171875 -18.546875 11.238281 -18.738281 C 11.460938 -19.027344 11.621094 -19.285156 11.75 -19.511719 C 11.816406 -19.640625 11.914062 -19.800781 12.042969 -19.960938 C 12.363281 -20.445312 12.71875 -20.925781 13.105469 -21.3125 L 13.714844 -21.925781 C 13.8125 -21.988281 13.941406 -22.023438 14.039062 -22.152344 L 14.261719 -22.410156 C 14.390625 -22.503906 14.519531 -22.539062 14.648438 -22.570312 C 14.679688 -22.570312 14.714844 -22.503906 14.714844 -22.410156 C 14.972656 -21.925781 14.90625 -21.441406 14.84375 -20.925781 Z M 14.84375 -20.925781" transform="translate(52.565 35.077)"/></g></g></g><g><g><g><path d="M 0.707031 0.578125 C 0.964844 0.675781 1.09375 0.613281 1.160156 0.226562 C 1.222656 0 1.222656 -0.226562 1.289062 -0.449219 C 1.382812 -0.742188 1.417969 -1.03125 1.546875 -1.351562 C 1.738281 -1.738281 1.996094 -2.09375 2.1875 -2.542969 C 2.414062 -2.929688 2.671875 -3.25 2.898438 -3.574219 L 3.507812 -4.378906 C 3.671875 -4.539062 3.863281 -4.699219 4.058594 -4.863281 C 4.121094 -4.957031 4.183594 -5.085938 4.28125 -5.121094 C 4.476562 -5.246094 4.667969 -5.3125 4.796875 -5.472656 C 4.992188 -5.632812 5.183594 -5.601562 5.375 -5.601562 C 5.796875 -5.410156 5.988281 -5.503906 5.988281 -5.503906 L 6.019531 -5.667969 C 5.957031 -5.828125 5.890625 -5.957031 5.761719 -6.054688 C 5.699219 -6.054688 5.667969 -6.117188 5.632812 -6.148438 C 5.503906 -6.277344 5.34375 -6.40625 5.183594 -6.535156 C 4.796875 -6.761719 4.347656 -6.761719 3.929688 -6.4375 C 3.574219 -6.214844 3.21875 -5.957031 2.929688 -5.539062 C 2.703125 -5.3125 2.511719 -5.152344 2.351562 -4.863281 C 2.316406 -4.765625 2.1875 -4.667969 2.09375 -4.539062 C 2.09375 -4.699219 2.15625 -4.796875 2.15625 -4.894531 C 2.1875 -5.183594 2.15625 -5.472656 2.0625 -5.730469 C 1.933594 -6.214844 1.675781 -6.375 1.351562 -6.246094 C 1.253906 -6.246094 1.125 -6.183594 1.0625 -6.085938 C 1.03125 -6.054688 1.03125 -5.925781 1 -5.859375 C 0.933594 -5.410156 0.835938 -4.992188 0.773438 -4.539062 C 0.707031 -4.121094 0.546875 -3.671875 0.484375 -3.21875 C 0.484375 -2.867188 0.355469 -2.511719 0.289062 -2.15625 L 0.03125 -0.835938 C -0.0625 -0.417969 0.0976562 -0.0976562 0.226562 0.226562 C 0.484375 0.355469 0.515625 0.484375 0.707031 0.578125 Z M 0.707031 0.578125" transform="translate(64.184 35.077)"/></g></g></g><g><g><g><path d="M 12.203125 -4.28125 L 12.074219 -4.570312 L 11.976562 -4.636719 C 11.65625 -4.441406 11.398438 -4.28125 11.171875 -4.089844 C 10.429688 -3.605469 10.496094 -3.671875 9.722656 -3.1875 C 9.273438 -2.867188 8.789062 -2.574219 8.371094 -2.316406 C 7.921875 -1.996094 7.40625 -1.609375 6.890625 -1.382812 C 6.761719 -1.320312 6.632812 -1.320312 6.535156 -1.289062 C 6.4375 -1.253906 6.375 -1.253906 6.308594 -1.289062 C 6.148438 -1.382812 6.054688 -1.511719 6.019531 -1.640625 C 5.828125 -2.09375 5.828125 -2.574219 5.925781 -3.027344 C 5.957031 -3.089844 5.957031 -3.15625 5.988281 -3.1875 C 6.085938 -3.445312 6.054688 -3.800781 6.054688 -3.800781 C 5.988281 -4.023438 5.859375 -4.183594 5.667969 -4.25 C 5.28125 -4.28125 5.054688 -4.023438 4.796875 -3.992188 C 4.957031 -4.3125 5.214844 -4.605469 5.121094 -5.054688 C 4.992188 -5.796875 4.21875 -5.925781 3.542969 -6.054688 C 2.929688 -5.988281 2.382812 -5.601562 1.996094 -5.183594 C 1.609375 -4.699219 1.191406 -4.3125 0.835938 -3.765625 C 0.773438 -3.703125 0.707031 -3.542969 0.578125 -3.378906 L 0.355469 -2.996094 C 0.289062 -2.769531 0.191406 -2.609375 0.160156 -2.414062 C 0.160156 -2.382812 0.160156 -2.382812 0.128906 -2.351562 C 0.0625 -2.15625 0 -1.996094 -0.0976562 -1.769531 C -0.226562 -1.289062 -0.128906 -0.871094 0.160156 -0.484375 C 0.355469 -0.386719 0.613281 -0.226562 0.675781 -0.160156 C 0.773438 -0.128906 0.871094 -0.128906 0.933594 -0.128906 C 1.417969 0.0625 1.964844 0.0625 2.480469 -0.191406 C 2.996094 -0.417969 3.507812 -0.835938 3.894531 -1.125 C 3.960938 -1.160156 3.992188 -1.253906 4.058594 -1.320312 C 4.28125 -1.320312 4.28125 -1.640625 4.507812 -1.769531 C 4.539062 -1.707031 4.539062 -1.640625 4.605469 -1.609375 C 4.699219 -1.449219 4.667969 -1.382812 4.863281 -1.191406 C 4.992188 -0.902344 5.214844 -0.773438 5.410156 -0.515625 C 5.503906 -0.484375 5.570312 -0.355469 5.667969 -0.320312 C 5.730469 -0.257812 5.925781 -0.257812 5.988281 -0.226562 C 6.117188 -0.191406 6.40625 -0.257812 6.535156 -0.257812 C 6.632812 -0.257812 6.792969 -0.320312 6.824219 -0.320312 C 6.921875 -0.320312 7.082031 -0.386719 7.148438 -0.417969 C 7.308594 -0.515625 7.40625 -0.484375 7.597656 -0.578125 C 7.921875 -0.804688 8.210938 -0.871094 8.46875 -1.160156 L 9.242188 -1.738281 L 9.722656 -2.15625 C 9.820312 -2.1875 10.046875 -2.445312 10.078125 -2.480469 C 10.238281 -2.542969 10.367188 -2.703125 10.464844 -2.800781 C 10.558594 -2.867188 10.785156 -2.960938 10.945312 -3.089844 C 11.367188 -3.378906 11.878906 -3.800781 12.203125 -4.28125 Z M 4.347656 -3.378906 C 3.863281 -2.867188 3.636719 -2.480469 3.15625 -1.964844 C 2.832031 -1.609375 2.542969 -1.382812 2.125 -1.222656 C 1.804688 -1.09375 1.222656 -1.0625 0.871094 -1.0625 C 1.03125 -1.707031 1.320312 -2.253906 1.609375 -2.769531 C 1.964844 -3.378906 3.089844 -4.894531 4.058594 -5.054688 C 4.023438 -5.023438 3.765625 -3.605469 4.476562 -3.542969 L 4.507812 -3.542969 C 4.507812 -3.542969 4.378906 -3.378906 4.347656 -3.378906 Z M 4.347656 -3.378906" transform="translate(70.492 35.077)"/></g></g></g><g><g><g><path d="M 17.417969 -13.425781 C 17.289062 -13.714844 17.0625 -14.039062 16.804688 -14.230469 C 16.035156 -14.808594 14.648438 -14.90625 13.652344 -14.808594 C 12.300781 -14.679688 11.332031 -14.296875 9.464844 -13.425781 C 8.726562 -13.070312 8.113281 -12.621094 7.4375 -12.105469 C 6.921875 -11.71875 6.472656 -11.269531 6.148438 -10.722656 C 5.503906 -9.753906 5.410156 -8.660156 5.925781 -7.5 C 6.375 -6.4375 7.566406 -5.570312 8.144531 -5.214844 C 8.789062 -4.796875 9.433594 -4.347656 10.140625 -3.992188 C 11.171875 -3.507812 12.171875 -2.898438 13.007812 -2.125 C 13.492188 -1.675781 13.941406 -1.222656 14.199219 -0.613281 C 14.519531 0.0625 14.390625 0.675781 14.039062 1.222656 C 13.746094 1.675781 13.328125 2.125 12.878906 2.414062 C 11.75 3.15625 10.078125 3.992188 8.339844 4.25 C 7.597656 4.378906 6.859375 4.410156 6.117188 4.378906 C 5.503906 4.347656 4.863281 4.152344 4.21875 3.765625 C 3.316406 3.21875 2.960938 1.769531 3.027344 0.804688 C 3.125 -0.449219 3.929688 -1.09375 4.992188 -1.417969 C 5.539062 -1.609375 4.570312 -2.574219 3.800781 -2.1875 C 3.636719 -2.125 1.578125 -0.0625 1.609375 0.707031 C 1.707031 2.929688 3.21875 4.570312 5.570312 4.992188 C 6.953125 5.214844 8.339844 5.246094 9.722656 5.023438 C 11.785156 4.699219 14.230469 3.636719 15.195312 2.285156 C 15.617188 1.675781 15.777344 1 15.488281 0.191406 C 15.101562 -0.742188 14.554688 -1.546875 13.78125 -2.222656 C 12.78125 -3.089844 11.6875 -3.800781 10.496094 -4.410156 C 10.269531 -4.539062 10.046875 -4.636719 9.820312 -4.796875 C 9.273438 -5.121094 8.660156 -5.441406 8.113281 -5.828125 C 7.050781 -6.664062 6.308594 -8.015625 7.117188 -9.496094 C 7.953125 -10.945312 9.433594 -11.621094 9.917969 -12.042969 L 10.6875 -12.621094 C 10.753906 -12.847656 10.851562 -12.941406 11.011719 -12.941406 C 11.140625 -12.941406 11.367188 -13.007812 11.460938 -13.070312 C 11.589844 -13.136719 11.65625 -13.199219 11.785156 -13.296875 C 11.914062 -13.523438 13.523438 -13.8125 13.8125 -13.875 C 13.8125 -13.875 14.230469 -13.8125 14.425781 -13.941406 L 15.003906 -13.875 C 15.359375 -13.84375 15.9375 -13.523438 16.164062 -13.070312 C 16.421875 -12.554688 16.421875 -12.074219 16.355469 -11.558594 C 16.226562 -10.625 15.9375 -10.269531 15.324219 -9.691406 C 14.90625 -9.273438 14.488281 -9.144531 14.585938 -8.886719 C 15.066406 -8.082031 15.617188 -8.273438 16.292969 -8.789062 C 17.644531 -9.917969 18.09375 -11.878906 17.417969 -13.425781 Z M 17.417969 -13.425781" transform="translate(87.035 35.077)"/></g></g></g><g><g><g><path d="M 2.671875 -7.050781 C 2.867188 -6.921875 3.058594 -6.921875 3.21875 -6.988281 C 3.507812 -7.179688 3.800781 -7.371094 3.929688 -7.726562 C 4.058594 -8.082031 3.929688 -8.433594 3.832031 -8.757812 C 3.765625 -8.984375 3.574219 -9.078125 3.21875 -9.046875 C 3.21875 -9.046875 3.089844 -9.046875 3.058594 -9.015625 C 2.640625 -8.789062 2.285156 -8.5625 2.125 -8.082031 C 2.0625 -7.757812 2.125 -7.5 2.316406 -7.277344 C 2.414062 -7.179688 2.574219 -7.117188 2.671875 -7.050781 Z M 7.019531 -3.605469 C 7.179688 -3.894531 7.148438 -4.089844 7.082031 -4.152344 C 6.664062 -3.734375 6.246094 -3.378906 5.859375 -3.027344 C 5.375 -2.574219 4.925781 -2.0625 4.410156 -1.609375 C 3.929688 -1.125 3.347656 -0.675781 2.832031 -0.226562 C 2.574219 0 2.285156 0.128906 1.933594 0.226562 C 1.964844 -0.0976562 2.0625 -0.386719 2.0625 -0.675781 C 2.09375 -1 2.285156 -1.289062 2.1875 -1.578125 C 2.1875 -1.640625 2.222656 -1.675781 2.253906 -1.738281 C 2.285156 -1.867188 2.351562 -1.996094 2.414062 -2.125 C 2.542969 -2.542969 2.671875 -2.929688 2.769531 -3.316406 C 2.832031 -3.476562 2.898438 -3.636719 2.898438 -3.832031 C 2.929688 -3.992188 2.929688 -4.183594 2.867188 -4.3125 C 2.800781 -4.441406 2.640625 -4.570312 2.511719 -4.667969 C 2.414062 -4.828125 2.1875 -4.925781 2.09375 -5.085938 C 1.996094 -5.246094 1.898438 -5.183594 1.804688 -5.152344 C 1.675781 -5.152344 1.640625 -5.054688 1.675781 -4.925781 L 1.675781 -4.667969 C 1.511719 -4.058594 1.351562 -3.507812 1.222656 -2.929688 C 1.09375 -2.511719 0.964844 -2.09375 0.902344 -1.675781 C 0.742188 -1.09375 0.613281 -0.484375 0.675781 0.0625 C 0.707031 0.191406 0.804688 0.257812 0.835938 0.386719 C 0.902344 0.449219 0.964844 0.546875 1 0.644531 C 1.03125 0.707031 1.03125 0.804688 1.09375 0.835938 C 1.320312 1 1.449219 1.289062 1.769531 1.351562 C 1.996094 1.417969 2.15625 1.511719 2.414062 1.449219 C 2.640625 1.320312 2.867188 1.222656 3.058594 1.125 C 3.25 1.0625 3.445312 1.03125 3.574219 0.902344 C 3.765625 0.773438 3.929688 0.644531 4.058594 0.484375 C 4.25 0.226562 4.476562 -0.03125 4.734375 -0.191406 L 4.894531 -0.355469 C 4.957031 -0.417969 4.992188 -0.515625 5.054688 -0.578125 L 5.410156 -1.09375 C 5.859375 -1.738281 5.925781 -2.027344 6.054688 -2.1875 C 6.246094 -2.414062 6.953125 -3.542969 6.988281 -3.574219 Z M 7.019531 -3.605469" transform="translate(105.123 35.077)"/></g></g></g><g><g><g><path d="M 0.964844 1.480469 C 1.222656 1.546875 1.351562 1.511719 1.480469 1.253906 C 1.511719 1.222656 1.511719 1.191406 1.578125 1.160156 L 1.675781 0.933594 C 1.835938 0.933594 1.964844 0.835938 2.09375 0.675781 C 2.253906 0.320312 2.867188 -0.871094 2.898438 -0.871094 L 3.058594 -1.09375 C 2.996094 -1.09375 3.1875 -1.253906 3.21875 -1.351562 C 3.316406 -1.511719 3.542969 -1.546875 3.507812 -1.804688 C 3.734375 -1.898438 3.894531 -2.0625 3.960938 -2.316406 C 4.183594 -2.351562 4.3125 -2.445312 4.410156 -2.800781 C 4.441406 -2.703125 4.507812 -2.671875 4.570312 -2.609375 C 4.570312 -2.414062 4.539062 -2.1875 4.539062 -2.027344 C 4.476562 -1.351562 4.605469 -0.742188 4.765625 -0.191406 C 4.894531 0.226562 5.152344 0.515625 5.441406 0.742188 C 5.601562 0.933594 5.699219 0.933594 5.925781 1.03125 L 5.957031 1.03125 C 6.4375 0.933594 6.988281 0.933594 7.4375 0.613281 C 7.726562 0.417969 8.015625 0.191406 8.210938 -0.03125 C 8.433594 -0.257812 8.691406 -0.449219 8.820312 -0.707031 C 8.820312 -0.742188 8.917969 -0.742188 8.949219 -0.773438 C 8.917969 -0.804688 8.917969 -0.871094 8.917969 -0.871094 C 9.078125 -0.964844 9.078125 -1.0625 9.113281 -1.125 L 9.660156 -1.769531 C 9.789062 -1.867188 9.917969 -2.027344 9.980469 -2.15625 C 10.046875 -2.285156 10.046875 -2.414062 10.109375 -2.574219 L 10.398438 -3.027344 C 10.558594 -3.21875 10.429688 -3.347656 10.238281 -3.347656 L 7.246094 -0.484375 C 7.082031 -0.355469 6.890625 -0.257812 6.695312 -0.191406 C 6.148438 0.0976562 6.054688 0.128906 6.019531 0.160156 L 5.925781 0.160156 C 5.890625 0.128906 5.796875 0.03125 5.796875 -0.03125 L 5.699219 -0.355469 C 5.699219 -0.578125 5.699219 -0.835938 5.667969 -1.0625 C 5.699219 -1.160156 5.667969 -1.253906 5.667969 -1.320312 C 5.699219 -1.578125 5.730469 -1.835938 5.730469 -2.09375 C 5.699219 -2.382812 5.632812 -2.671875 5.539062 -2.960938 C 5.539062 -3.058594 5.570312 -3.15625 5.539062 -3.15625 C 5.410156 -3.21875 5.441406 -3.378906 5.410156 -3.542969 C 4.894531 -3.800781 4.828125 -3.863281 4.734375 -3.863281 C 4.636719 -3.894531 4.570312 -3.929688 4.3125 -3.929688 C 3.992188 -3.894531 3.960938 -3.894531 3.800781 -3.800781 C 3.542969 -3.605469 3.316406 -3.378906 3.125 -3.15625 C 2.738281 -2.769531 2.382812 -2.316406 2.0625 -1.835938 C 2.0625 -1.804688 2.0625 -1.835938 2.027344 -1.804688 C 2.0625 -1.867188 2.0625 -1.898438 2.0625 -1.933594 C 2.125 -2.15625 2.222656 -2.351562 2.285156 -2.574219 C 2.351562 -2.800781 2.351562 -2.960938 2.382812 -3.1875 C 2.414062 -3.445312 2.445312 -3.671875 2.511719 -3.929688 C 2.511719 -3.960938 2.511719 -3.960938 2.480469 -3.992188 C 2.253906 -4.3125 1.964844 -4.605469 1.546875 -4.636719 C 1.351562 -4.667969 1.289062 -4.605469 1.253906 -4.378906 C 1.222656 -4.183594 1.191406 -3.992188 1.289062 -3.894531 C 1.320312 -3.894531 1.320312 -3.832031 1.320312 -3.800781 C 1.253906 -3.414062 1.222656 -3.058594 1.125 -2.671875 C 1 -2.09375 0.804688 -1.511719 0.644531 -0.964844 C 0.515625 -0.386719 0.449219 0.128906 0.355469 0.675781 C 0.289062 0.933594 0.773438 1.417969 0.964844 1.480469 Z M 0.964844 1.480469" transform="translate(111.625 35.077)"/></g></g></g><g><g><g><path d="M 9.496094 2.414062 C 9.144531 2.382812 8.757812 2.382812 8.371094 2.414062 C 7.953125 2.445312 7.566406 2.542969 7.148438 2.574219 C 7.117188 2.574219 7.082031 2.414062 7.082031 2.414062 C 7.179688 2.15625 7.117188 1.867188 7.179688 1.578125 C 7.371094 1.125 7.277344 0.675781 7.371094 0.191406 C 7.597656 -0.804688 7.695312 -1.769531 7.953125 -2.800781 C 7.984375 -2.960938 8.015625 -3.125 8.082031 -3.316406 C 8.179688 -3.542969 8.210938 -3.832031 8.339844 -4.058594 L 8.433594 -4.667969 C 8.113281 -4.765625 7.984375 -4.796875 7.664062 -4.828125 L 7.277344 -4.925781 C 7.117188 -4.828125 6.890625 -4.476562 6.695312 -4.3125 L 6.472656 -4.734375 C 6.214844 -5.054688 6.019531 -5.214844 5.699219 -5.472656 C 5.503906 -5.601562 5.085938 -5.667969 4.894531 -5.828125 C 4.765625 -5.859375 4.507812 -5.796875 4.347656 -5.859375 C 3.992188 -5.988281 3.605469 -5.890625 3.25 -5.761719 C 3.058594 -5.699219 2.542969 -5.214844 2.351562 -5.085938 C 1.964844 -4.796875 1.867188 -4.21875 1.511719 -3.929688 C 1.511719 -3.894531 1.511719 -3.894531 1.480469 -3.894531 C 1.320312 -3.636719 1.222656 -3.414062 1.160156 -3.25 C 1.09375 -3.089844 0.964844 -2.867188 0.871094 -2.671875 C 0.707031 -2.1875 0.515625 -1.675781 0.707031 -1.160156 C 0.742188 -0.835938 0.742188 -0.515625 1 -0.320312 C 1.09375 -0.289062 1.191406 -0.160156 1.191406 -0.0625 C 1.253906 0.03125 1.320312 0.160156 1.417969 0.226562 L 2.222656 0.515625 C 2.445312 0.546875 2.703125 0.578125 2.929688 0.515625 C 3.1875 0.515625 3.347656 0.449219 3.507812 0.417969 C 3.894531 0.289062 4.121094 0.0976562 4.636719 -0.0625 L 4.636719 -0.0976562 C 5.152344 -0.484375 5.503906 -0.964844 5.503906 -0.964844 C 5.632812 -1.03125 5.667969 -1.09375 5.761719 -1.222656 C 5.828125 -1.253906 5.859375 -1.382812 5.925781 -1.417969 L 6.117188 -1.382812 C 6.148438 -1.382812 6.246094 -1.382812 6.277344 -1.417969 C 6.148438 -0.804688 5.988281 -0.128906 5.925781 0.546875 L 5.890625 0.613281 C 5.890625 0.871094 5.632812 1.09375 5.730469 1.867188 C 5.632812 2.027344 5.632812 2.1875 5.601562 2.351562 C 5.601562 2.414062 5.601562 2.480469 5.632812 2.511719 C 5.667969 2.867188 5.539062 3.058594 5.152344 3.15625 L 5.023438 3.1875 C 4.605469 3.445312 4.089844 3.605469 3.605469 3.800781 L 2.382812 4.476562 C 1.835938 4.699219 1.320312 5.023438 0.902344 5.375 C 0.355469 5.761719 -0.160156 6.117188 -0.675781 6.503906 C -0.964844 6.695312 -1.160156 6.953125 -1.320312 7.117188 C -1.511719 7.246094 -1.804688 7.566406 -1.867188 7.628906 L -2.640625 8.433594 C -2.960938 8.917969 -3.414062 9.433594 -3.703125 9.917969 C -4.023438 10.429688 -4.347656 10.980469 -4.636719 11.558594 L -4.863281 12.007812 L -5.054688 12.71875 C -5.085938 12.75 -5.121094 12.78125 -5.152344 12.847656 C -5.3125 13.328125 -5.375 13.78125 -5.472656 14.199219 C -5.601562 14.714844 -5.667969 15.261719 -5.730469 15.839844 C -5.761719 16 -5.761719 16.164062 -5.796875 16.386719 C -5.761719 16.484375 -5.761719 16.613281 -5.699219 16.675781 C -5.472656 17.097656 -5.375 17.417969 -5.246094 17.738281 C -5.152344 17.902344 -5.023438 17.933594 -4.957031 18.0625 C -4.828125 18.449219 -4.476562 18.769531 -4.089844 18.929688 C -3.636719 19.1875 -3.1875 19.351562 -2.640625 19.511719 C -2.574219 19.542969 -2.414062 19.542969 -2.285156 19.511719 C -1.867188 19.511719 -1.511719 19.480469 -1.125 19.382812 C -0.964844 19.382812 -0.742188 19.253906 -0.578125 19.15625 C -0.484375 19.09375 -0.417969 18.898438 -0.320312 18.867188 C 0.0976562 18.867188 0.289062 18.546875 0.613281 18.417969 C 0.644531 18.417969 0.644531 18.382812 0.675781 18.351562 C 0.871094 18.125 1.125 17.964844 1.351562 17.738281 C 1.511719 17.613281 1.640625 17.515625 1.640625 17.257812 C 1.933594 16.933594 2.285156 16.644531 2.574219 16.292969 C 2.574219 16.292969 2.542969 16.257812 2.542969 16.226562 L 2.445312 16.226562 C 2.414062 16.226562 2.414062 16.195312 2.414062 16.164062 C 2.511719 16.066406 2.703125 15.9375 2.832031 15.808594 C 2.832031 15.808594 2.832031 15.839844 2.867188 15.839844 C 2.960938 15.679688 3.058594 15.519531 3.1875 15.359375 L 2.996094 15.230469 C 3.058594 15.003906 3.542969 15.066406 3.414062 14.714844 C 3.445312 14.679688 3.542969 14.617188 3.636719 14.585938 C 3.574219 14.519531 3.507812 14.488281 3.445312 14.457031 C 3.605469 14.425781 3.832031 14.488281 3.800781 14.296875 C 3.703125 14.199219 3.671875 14.132812 3.636719 14.039062 C 3.960938 14.261719 3.800781 13.84375 3.894531 13.8125 C 3.960938 13.617188 4.183594 13.554688 4.28125 13.363281 C 4.347656 13.105469 4.570312 12.621094 4.667969 12.589844 C 4.667969 12.589844 4.636719 12.589844 4.636719 12.554688 L 4.667969 12.460938 C 4.667969 12.363281 4.667969 12.265625 4.636719 12.136719 L 4.863281 11.976562 C 4.828125 11.976562 4.796875 11.945312 4.765625 11.878906 L 5.34375 10.625 C 5.410156 10.527344 5.410156 10.429688 5.410156 10.335938 C 5.3125 10.335938 5.410156 10.207031 5.472656 10.175781 C 5.472656 10.046875 5.570312 9.980469 5.632812 9.917969 C 5.667969 9.789062 5.667969 9.660156 5.632812 9.5625 C 5.632812 9.53125 5.667969 9.5625 5.761719 9.371094 C 5.828125 9.175781 5.859375 8.949219 5.890625 8.789062 C 5.957031 8.53125 6.019531 8.273438 6.117188 7.984375 C 6.085938 7.921875 5.988281 7.886719 5.925781 7.855469 L 6.085938 7.535156 C 6.277344 7.46875 6.246094 7.371094 6.214844 7.179688 L 6.246094 6.921875 C 6.214844 6.921875 6.308594 6.601562 6.277344 6.535156 C 6.375 6.277344 6.277344 6.40625 6.375 6.054688 C 6.375 6.019531 6.277344 5.957031 6.246094 5.925781 C 6.472656 5.796875 6.535156 5.730469 6.472656 5.472656 C 6.632812 5.410156 6.695312 5.246094 6.566406 5.023438 C 6.792969 4.828125 6.566406 4.699219 6.601562 4.539062 L 6.824219 4.476562 C 6.792969 4.3125 6.761719 4.21875 6.695312 4.089844 C 6.730469 4.058594 6.761719 3.992188 6.761719 3.929688 C 6.890625 3.734375 6.953125 3.636719 7.179688 3.671875 C 7.210938 3.671875 7.277344 3.636719 7.339844 3.605469 L 9.980469 2.867188 C 9.980469 2.671875 9.753906 2.382812 9.496094 2.414062 Z M 5.730469 -2.898438 C 5.699219 -2.898438 5.667969 -2.867188 5.667969 -2.832031 C 5.632812 -2.542969 5.28125 -2.511719 5.152344 -2.316406 C 5.085938 -2.253906 5.023438 -2.15625 4.957031 -2.15625 C 4.734375 -2.0625 4.539062 -1.898438 4.410156 -1.675781 L 4.378906 -1.675781 L 3.476562 -1.160156 C 2.996094 -1 2.609375 -0.804688 2.125 -0.773438 C 1.996094 -0.773438 1.867188 -0.742188 1.769531 -0.742188 C 1.640625 -1.03125 1.738281 -1.253906 1.835938 -1.578125 C 1.996094 -1.933594 2.125 -2.316406 2.316406 -2.703125 C 2.480469 -2.960938 2.703125 -3.15625 2.867188 -3.378906 L 2.832031 -3.542969 C 2.898438 -3.636719 3.027344 -3.734375 3.058594 -3.800781 C 3.285156 -4.023438 3.542969 -4.183594 3.800781 -4.410156 C 4.152344 -4.796875 4.636719 -4.894531 5.121094 -4.957031 C 5.214844 -4.957031 5.34375 -4.894531 5.410156 -4.796875 C 5.503906 -4.734375 5.667969 -4.183594 5.632812 -3.960938 C 5.570312 -3.734375 5.632812 -3.574219 5.761719 -3.445312 C 5.859375 -3.347656 5.925781 -3.21875 6.054688 -3.15625 C 5.988281 -3.058594 5.957031 -2.867188 5.730469 -2.898438 Z M 5.152344 5.570312 L 5.152344 5.699219 C 5.152344 6.054688 5.023438 6.472656 4.957031 6.761719 C 4.828125 7.339844 4.734375 7.953125 4.570312 8.53125 C 4.410156 9.304688 4.121094 10.011719 3.863281 10.785156 C 3.703125 11.300781 3.542969 11.75 3.285156 12.265625 C 2.929688 12.941406 2.671875 13.617188 2.222656 14.261719 C 1.769531 14.90625 1.449219 15.488281 0.933594 16.128906 C 0.578125 16.515625 0.226562 16.96875 -0.191406 17.289062 C -0.644531 17.644531 -1.03125 17.996094 -1.578125 18.160156 C -1.769531 18.222656 -2.027344 18.382812 -2.253906 18.449219 C -2.640625 18.609375 -3.058594 18.546875 -3.507812 18.382812 C -3.542969 18.382812 -3.574219 18.351562 -3.636719 18.320312 L -3.800781 18.191406 C -4.3125 17.902344 -4.667969 17.484375 -4.734375 16.839844 C -4.765625 16.257812 -4.828125 15.710938 -4.796875 15.101562 C -4.765625 14.648438 -4.605469 14.230469 -4.507812 13.78125 C -4.441406 13.554688 -4.410156 13.234375 -4.3125 12.976562 C -4.28125 12.78125 -4.21875 12.652344 -4.121094 12.523438 C -4.058594 12.332031 -3.734375 11.75 -3.703125 11.75 L -3.027344 10.753906 C -3.058594 10.558594 -2.351562 9.722656 -2.285156 9.59375 C -2.09375 9.402344 -1.867188 9.144531 -1.640625 8.984375 C -1.449219 8.726562 -1.320312 8.5625 -1.125 8.371094 C -1 8.242188 -0.835938 8.179688 -0.644531 8.015625 C -0.515625 7.855469 -0.257812 7.695312 -0.128906 7.5 C 0.257812 7.179688 0.675781 6.988281 1.03125 6.730469 C 1.511719 6.375 2.0625 6.085938 2.480469 5.796875 C 3.1875 5.28125 3.929688 4.992188 4.734375 4.667969 C 4.957031 4.605469 5.152344 4.441406 5.410156 4.378906 C 5.28125 4.765625 5.246094 5.183594 5.152344 5.570312 Z M 5.152344 5.570312" transform="translate(119.96 35.077)"/></g></g></g><g><g><g><path d="M 7.019531 0.128906 L 7.695312 -0.320312 C 8.53125 -0.933594 9.046875 -1.449219 9.304688 -1.675781 C 9.59375 -1.933594 9.660156 -2.027344 9.917969 -2.285156 C 10.269531 -2.703125 10.429688 -2.867188 10.6875 -3.25 L 10.65625 -3.285156 C 10.722656 -3.542969 10.914062 -3.800781 11.011719 -3.992188 C 10.980469 -3.992188 10.945312 -3.992188 10.945312 -4.023438 L 11.140625 -4.605469 C 11.109375 -4.605469 11.074219 -4.605469 11.011719 -4.570312 L 10.65625 -4.21875 C 9.980469 -3.574219 9.53125 -2.996094 8.691406 -2.253906 C 8.339844 -1.933594 7.371094 -1.125 6.988281 -0.902344 C 6.601562 -0.675781 6.246094 -0.515625 5.761719 -0.578125 C 5.570312 -0.675781 5.539062 -0.964844 5.539062 -1.191406 C 5.539062 -1.675781 5.632812 -2.15625 5.730469 -2.640625 C 5.828125 -3.1875 6.054688 -3.703125 6.117188 -4.25 C 6.183594 -4.636719 6.308594 -5.085938 6.214844 -5.375 C 6.246094 -5.601562 6.148438 -5.796875 6.019531 -5.925781 C 5.796875 -6.183594 5.570312 -6.214844 5.121094 -6.214844 C 4.957031 -6.214844 4.734375 -6.214844 4.378906 -6.085938 C 3.894531 -5.890625 3.636719 -5.699219 3.285156 -5.472656 C 3.058594 -5.3125 2.832031 -5.183594 2.640625 -4.957031 C 2.867188 -5.730469 2.867188 -5.667969 3.058594 -6.695312 C 3.15625 -7.117188 3.445312 -7.886719 3.445312 -7.984375 C 3.542969 -8.179688 3.574219 -8.339844 3.605469 -8.5625 C 3.671875 -8.691406 3.734375 -8.820312 3.894531 -8.949219 C 4.3125 -9.464844 4.828125 -9.980469 5.3125 -10.527344 C 5.503906 -10.65625 5.667969 -10.851562 5.859375 -11.042969 C 6.054688 -11.300781 6.34375 -11.527344 6.535156 -11.816406 C 7.050781 -12.460938 7.535156 -13.039062 7.984375 -13.652344 C 8.308594 -14.070312 8.660156 -14.554688 8.984375 -15.066406 C 9.304688 -15.453125 9.53125 -15.90625 9.851562 -16.292969 C 10.175781 -16.742188 10.398438 -17.226562 10.785156 -17.644531 C 11.074219 -17.933594 11.140625 -18.351562 11.429688 -18.640625 C 11.71875 -18.800781 11.816406 -19.125 11.878906 -19.382812 C 11.945312 -19.769531 12.074219 -20.089844 12.332031 -20.347656 L 12.332031 -20.507812 C 12.332031 -20.574219 12.394531 -20.636719 12.429688 -20.703125 C 12.523438 -21.023438 12.621094 -21.3125 12.75 -21.667969 C 12.75 -21.699219 12.71875 -21.765625 12.683594 -21.796875 C 12.71875 -21.863281 12.683594 -21.925781 12.71875 -22.054688 C 12.78125 -22.375 12.589844 -22.925781 12.234375 -23.050781 C 11.816406 -23.277344 11.398438 -23.40625 10.851562 -23.214844 C 10.175781 -22.988281 9.59375 -22.570312 9.113281 -22.023438 C 8.886719 -21.925781 8.757812 -21.765625 8.597656 -21.605469 L 8.144531 -21.023438 L 8.273438 -21.023438 C 8.179688 -20.925781 8.113281 -20.894531 7.921875 -20.832031 C 7.984375 -20.800781 8.082031 -20.800781 8.113281 -20.800781 C 7.824219 -20.445312 7.597656 -20.089844 7.339844 -19.769531 C 7.246094 -19.703125 7.117188 -19.671875 7.050781 -19.640625 C 7.050781 -19.480469 6.988281 -19.316406 6.953125 -19.222656 C 6.761719 -18.996094 6.664062 -18.800781 6.535156 -18.578125 C 6.308594 -18.160156 6.054688 -17.738281 5.828125 -17.289062 C 5.601562 -16.933594 5.441406 -16.613281 5.28125 -16.226562 C 5.121094 -16.128906 5.121094 -16.035156 5.3125 -16 C 5.085938 -16.035156 5.023438 -15.839844 4.992188 -15.710938 C 4.863281 -15.421875 4.734375 -15.132812 4.636719 -14.84375 C 4.25 -13.941406 3.863281 -13.039062 3.574219 -12.171875 C 3.316406 -11.269531 3.089844 -10.625 2.769531 -9.722656 L 2.769531 -9.753906 C 2.738281 -9.5625 2.769531 -9.59375 2.640625 -9.402344 C 2.125 -8.949219 1.351562 -8.371094 0.707031 -7.984375 C 0.578125 -7.886719 0.546875 -7.082031 0.613281 -6.953125 C 0.644531 -6.890625 0.742188 -6.824219 0.835938 -6.792969 C 1.03125 -6.730469 1.738281 -7.308594 2.027344 -7.4375 L 2.125 -7.5 C 2.09375 -7.4375 2.0625 -7.210938 2.027344 -7.148438 C 1.996094 -7.082031 1.191406 -3.1875 1 -2.222656 C 0.964844 -1.964844 0.773438 -0.933594 0.804688 -0.742188 C 1.03125 -0.578125 1.449219 -0.515625 1.640625 -0.515625 C 1.738281 -0.515625 1.769531 -0.742188 1.835938 -0.964844 C 1.933594 -1.382812 2.0625 -2.285156 2.1875 -2.738281 C 2.253906 -3.027344 2.316406 -3.21875 2.414062 -3.445312 C 2.640625 -3.671875 2.738281 -3.863281 3.21875 -4.152344 C 3.476562 -4.3125 3.734375 -4.539062 4.25 -4.765625 C 4.441406 -4.863281 4.925781 -5.152344 4.863281 -4.636719 C 4.765625 -4.089844 4.667969 -3.734375 4.539062 -3.21875 C 4.378906 -2.640625 4.3125 -1.996094 4.25 -1.417969 C 4.183594 -0.964844 4.28125 -0.546875 4.476562 -0.191406 C 4.828125 0.613281 6.054688 0.742188 7.019531 0.128906 Z M 4.28125 -10.59375 C 4.25 -10.59375 4.21875 -10.59375 4.25 -10.625 C 4.25 -10.722656 4.3125 -10.816406 4.378906 -10.980469 C 4.378906 -11.203125 4.476562 -11.460938 4.605469 -11.75 C 4.667969 -12.042969 4.699219 -12.300781 4.863281 -12.621094 C 4.957031 -12.878906 4.894531 -13.234375 5.121094 -13.394531 C 5.183594 -13.523438 5.246094 -13.652344 5.28125 -13.78125 C 5.28125 -13.8125 5.34375 -13.84375 5.34375 -13.84375 C 5.246094 -14.101562 5.667969 -14.261719 5.632812 -14.554688 C 5.601562 -14.617188 5.761719 -14.679688 5.796875 -14.808594 C 5.859375 -15.035156 5.957031 -15.292969 6.085938 -15.519531 C 6.148438 -15.710938 6.214844 -15.9375 6.375 -16.097656 C 6.503906 -16.386719 6.664062 -16.675781 6.824219 -16.96875 C 6.859375 -17.097656 6.953125 -17.160156 7.050781 -17.257812 C 7.210938 -17.613281 7.371094 -17.933594 7.628906 -18.289062 C 7.824219 -18.640625 8.082031 -18.964844 8.339844 -19.285156 C 8.46875 -19.480469 8.53125 -19.609375 8.757812 -19.800781 C 8.820312 -19.898438 8.949219 -19.992188 9.015625 -20.058594 L 9.5625 -20.765625 C 10.269531 -21.347656 10.980469 -22.152344 11.6875 -22.34375 C 11.6875 -22.3125 11.71875 -22.3125 11.75 -22.3125 C 12.007812 -21.734375 11.460938 -20.316406 10.945312 -19.640625 C 10.945312 -19.480469 10.722656 -19.285156 10.625 -19.125 C 10.59375 -19.09375 10.625 -19.027344 10.65625 -18.964844 C 10.625 -18.996094 10.59375 -18.964844 10.496094 -18.929688 C 10.464844 -18.800781 10.304688 -18.675781 10.207031 -18.578125 C 10.140625 -18.449219 10.140625 -18.351562 10.078125 -18.253906 C 10.046875 -18.09375 10.078125 -17.996094 9.882812 -18.03125 C 9.882812 -17.835938 9.820312 -17.707031 9.660156 -17.613281 C 9.59375 -17.546875 9.496094 -17.386719 9.496094 -17.289062 C 9.402344 -16.933594 9.046875 -16.675781 8.886719 -16.386719 C 8.53125 -15.839844 8.113281 -15.324219 7.726562 -14.808594 C 7.148438 -14.070312 6.664062 -13.328125 6.054688 -12.621094 C 5.441406 -11.914062 4.863281 -11.300781 4.28125 -10.59375 Z M 4.28125 -10.59375" transform="translate(130.389 35.077)"/></g></g></g><g><g><g><path d="M 11.75 -15.195312 C 8.113281 -13.910156 3.894531 -11.042969 2.222656 -8.402344 C 1.675781 -7.566406 1.867188 -5.890625 3.476562 -5.859375 C 3.734375 -5.890625 3.992188 -6.019531 4.347656 -6.246094 C 4.023438 -6.308594 3.832031 -6.308594 3.671875 -6.375 C 3.476562 -6.40625 3.347656 -6.503906 3.378906 -6.695312 C 3.414062 -6.988281 3.507812 -7.246094 3.703125 -7.46875 C 4.347656 -8.273438 4.957031 -9.015625 5.699219 -9.722656 C 7.40625 -11.429688 10.367188 -13.105469 12.589844 -13.8125 C 16.613281 -15.132812 19.738281 -13.714844 17.933594 -10.753906 C 17.484375 -9.980469 16.871094 -9.273438 16.195312 -8.660156 C 14.585938 -7.210938 12.910156 -5.988281 11.042969 -4.992188 C 9.980469 -4.410156 7.308594 -3.476562 6.472656 -3.285156 C 7.855469 -6.40625 8.757812 -8.210938 8.628906 -8.597656 C 8.371094 -9.015625 8.113281 -9.144531 7.628906 -9.113281 C 7.148438 -8.597656 6.921875 -7.953125 6.601562 -7.339844 C 6.054688 -6.214844 5.699219 -5.023438 5.246094 -3.832031 C 5.085938 -3.476562 5.054688 -3.027344 4.828125 -2.738281 C 4.570312 -2.382812 4.734375 -2.027344 4.570312 -1.675781 C 4.378906 -1.125 4.3125 -0.578125 4.183594 -0.03125 C 4.023438 1.0625 3.832031 2.222656 3.832031 3.347656 C 3.800781 4.023438 3.863281 4.796875 4.25 5.34375 C 4.3125 5.441406 4.25 5.570312 4.441406 5.570312 C 5.023438 5.246094 4.796875 4.863281 4.925781 4.441406 C 5.3125 4.476562 5.601562 4.539062 5.828125 4.605469 C 6.148438 4.734375 6.40625 4.796875 6.761719 4.894531 C 6.988281 4.957031 7.277344 5.023438 7.566406 5.054688 C 7.824219 5.121094 8.628906 5.121094 9.046875 5.152344 C 9.078125 5.152344 9.402344 5.183594 9.433594 5.152344 C 9.949219 5.085938 10.464844 5.121094 10.980469 5.023438 C 12.171875 4.828125 12.847656 4.667969 14.003906 4.023438 C 14.648438 3.671875 15.164062 3.316406 15.710938 2.832031 C 15.742188 2.832031 15.710938 2.769531 15.742188 2.671875 C 15.871094 2.609375 16 2.480469 16.128906 2.351562 C 17.449219 0.742188 17.320312 -1.191406 16.097656 -2.414062 C 14.875 -3.636719 13.234375 -4.089844 11.492188 -3.894531 L 11.492188 -3.960938 C 12.683594 -4.667969 13.554688 -5.214844 14.519531 -5.761719 C 14.777344 -5.925781 15.035156 -6.054688 15.230469 -6.246094 C 15.488281 -6.472656 15.777344 -6.664062 15.839844 -6.988281 C 15.9375 -6.988281 16.035156 -6.988281 16.097656 -7.019531 C 16.355469 -7.210938 16.613281 -7.371094 16.804688 -7.535156 C 17.0625 -7.886719 17.484375 -8.113281 17.546875 -8.597656 C 17.546875 -8.628906 17.578125 -8.660156 17.644531 -8.660156 L 17.933594 -8.820312 C 22.117188 -13.136719 17.773438 -17.320312 11.75 -15.195312 Z M 12.976562 -2.769531 C 14.132812 -2.609375 14.777344 -2.222656 15.230469 -1.417969 C 15.839844 -0.289062 15.359375 1.160156 14.488281 2.0625 C 13.039062 3.542969 11.492188 3.992188 9.53125 4.121094 C 8.144531 4.21875 6.730469 3.832031 6.117188 3.671875 C 5.890625 3.605469 5.023438 3.347656 5.023438 2.703125 C 5.023438 1.964844 5.632812 -0.386719 5.761719 -0.871094 C 5.859375 -1.253906 5.925781 -1.511719 6.054688 -1.804688 C 6.214844 -1.835938 6.730469 -1.996094 7.117188 -2.09375 C 8.726562 -2.480469 10.464844 -3.125 12.976562 -2.769531 Z M 12.976562 -2.769531" transform="translate(146.513 35.077)"/></g></g></g><g><g><g><path d="M 7.019531 0.128906 L 7.695312 -0.320312 C 8.53125 -0.933594 9.046875 -1.449219 9.304688 -1.675781 C 9.59375 -1.933594 9.660156 -2.027344 9.917969 -2.285156 C 10.269531 -2.703125 10.429688 -2.867188 10.6875 -3.25 L 10.65625 -3.285156 C 10.722656 -3.542969 10.914062 -3.800781 11.011719 -3.992188 C 10.980469 -3.992188 10.945312 -3.992188 10.945312 -4.023438 L 11.140625 -4.605469 C 11.109375 -4.605469 11.074219 -4.605469 11.011719 -4.570312 L 10.65625 -4.21875 C 9.980469 -3.574219 9.53125 -2.996094 8.691406 -2.253906 C 8.339844 -1.933594 7.371094 -1.125 6.988281 -0.902344 C 6.601562 -0.675781 6.246094 -0.515625 5.761719 -0.578125 C 5.570312 -0.675781 5.539062 -0.964844 5.539062 -1.191406 C 5.539062 -1.675781 5.632812 -2.15625 5.730469 -2.640625 C 5.828125 -3.1875 6.054688 -3.703125 6.117188 -4.25 C 6.183594 -4.636719 6.308594 -5.085938 6.214844 -5.375 C 6.246094 -5.601562 6.148438 -5.796875 6.019531 -5.925781 C 5.796875 -6.183594 5.570312 -6.214844 5.121094 -6.214844 C 4.957031 -6.214844 4.734375 -6.214844 4.378906 -6.085938 C 3.894531 -5.890625 3.636719 -5.699219 3.285156 -5.472656 C 3.058594 -5.3125 2.832031 -5.183594 2.640625 -4.957031 C 2.867188 -5.730469 2.867188 -5.667969 3.058594 -6.695312 C 3.15625 -7.117188 3.445312 -7.886719 3.445312 -7.984375 C 3.542969 -8.179688 3.574219 -8.339844 3.605469 -8.5625 C 3.671875 -8.691406 3.734375 -8.820312 3.894531 -8.949219 C 4.3125 -9.464844 4.828125 -9.980469 5.3125 -10.527344 C 5.503906 -10.65625 5.667969 -10.851562 5.859375 -11.042969 C 6.054688 -11.300781 6.34375 -11.527344 6.535156 -11.816406 C 7.050781 -12.460938 7.535156 -13.039062 7.984375 -13.652344 C 8.308594 -14.070312 8.660156 -14.554688 8.984375 -15.066406 C 9.304688 -15.453125 9.53125 -15.90625 9.851562 -16.292969 C 10.175781 -16.742188 10.398438 -17.226562 10.785156 -17.644531 C 11.074219 -17.933594 11.140625 -18.351562 11.429688 -18.640625 C 11.71875 -18.800781 11.816406 -19.125 11.878906 -19.382812 C 11.945312 -19.769531 12.074219 -20.089844 12.332031 -20.347656 L 12.332031 -20.507812 C 12.332031 -20.574219 12.394531 -20.636719 12.429688 -20.703125 C 12.523438 -21.023438 12.621094 -21.3125 12.75 -21.667969 C 12.75 -21.699219 12.71875 -21.765625 12.683594 -21.796875 C 12.71875 -21.863281 12.683594 -21.925781 12.71875 -22.054688 C 12.78125 -22.375 12.589844 -22.925781 12.234375 -23.050781 C 11.816406 -23.277344 11.398438 -23.40625 10.851562 -23.214844 C 10.175781 -22.988281 9.59375 -22.570312 9.113281 -22.023438 C 8.886719 -21.925781 8.757812 -21.765625 8.597656 -21.605469 L 8.144531 -21.023438 L 8.273438 -21.023438 C 8.179688 -20.925781 8.113281 -20.894531 7.921875 -20.832031 C 7.984375 -20.800781 8.082031 -20.800781 8.113281 -20.800781 C 7.824219 -20.445312 7.597656 -20.089844 7.339844 -19.769531 C 7.246094 -19.703125 7.117188 -19.671875 7.050781 -19.640625 C 7.050781 -19.480469 6.988281 -19.316406 6.953125 -19.222656 C 6.761719 -18.996094 6.664062 -18.800781 6.535156 -18.578125 C 6.308594 -18.160156 6.054688 -17.738281 5.828125 -17.289062 C 5.601562 -16.933594 5.441406 -16.613281 5.28125 -16.226562 C 5.121094 -16.128906 5.121094 -16.035156 5.3125 -16 C 5.085938 -16.035156 5.023438 -15.839844 4.992188 -15.710938 C 4.863281 -15.421875 4.734375 -15.132812 4.636719 -14.84375 C 4.25 -13.941406 3.863281 -13.039062 3.574219 -12.171875 C 3.316406 -11.269531 3.089844 -10.625 2.769531 -9.722656 L 2.769531 -9.753906 C 2.738281 -9.5625 2.769531 -9.59375 2.640625 -9.402344 C 2.125 -8.949219 1.351562 -8.371094 0.707031 -7.984375 C 0.578125 -7.886719 0.546875 -7.082031 0.613281 -6.953125 C 0.644531 -6.890625 0.742188 -6.824219 0.835938 -6.792969 C 1.03125 -6.730469 1.738281 -7.308594 2.027344 -7.4375 L 2.125 -7.5 C 2.09375 -7.4375 2.0625 -7.210938 2.027344 -7.148438 C 1.996094 -7.082031 1.191406 -3.1875 1 -2.222656 C 0.964844 -1.964844 0.773438 -0.933594 0.804688 -0.742188 C 1.03125 -0.578125 1.449219 -0.515625 1.640625 -0.515625 C 1.738281 -0.515625 1.769531 -0.742188 1.835938 -0.964844 C 1.933594 -1.382812 2.0625 -2.285156 2.1875 -2.738281 C 2.253906 -3.027344 2.316406 -3.21875 2.414062 -3.445312 C 2.640625 -3.671875 2.738281 -3.863281 3.21875 -4.152344 C 3.476562 -4.3125 3.734375 -4.539062 4.25 -4.765625 C 4.441406 -4.863281 4.925781 -5.152344 4.863281 -4.636719 C 4.765625 -4.089844 4.667969 -3.734375 4.539062 -3.21875 C 4.378906 -2.640625 4.3125 -1.996094 4.25 -1.417969 C 4.183594 -0.964844 4.28125 -0.546875 4.476562 -0.191406 C 4.828125 0.613281 6.054688 0.742188 7.019531 0.128906 Z M 4.28125 -10.59375 C 4.25 -10.59375 4.21875 -10.59375 4.25 -10.625 C 4.25 -10.722656 4.3125 -10.816406 4.378906 -10.980469 C 4.378906 -11.203125 4.476562 -11.460938 4.605469 -11.75 C 4.667969 -12.042969 4.699219 -12.300781 4.863281 -12.621094 C 4.957031 -12.878906 4.894531 -13.234375 5.121094 -13.394531 C 5.183594 -13.523438 5.246094 -13.652344 5.28125 -13.78125 C 5.28125 -13.8125 5.34375 -13.84375 5.34375 -13.84375 C 5.246094 -14.101562 5.667969 -14.261719 5.632812 -14.554688 C 5.601562 -14.617188 5.761719 -14.679688 5.796875 -14.808594 C 5.859375 -15.035156 5.957031 -15.292969 6.085938 -15.519531 C 6.148438 -15.710938 6.214844 -15.9375 6.375 -16.097656 C 6.503906 -16.386719 6.664062 -16.675781 6.824219 -16.96875 C 6.859375 -17.097656 6.953125 -17.160156 7.050781 -17.257812 C 7.210938 -17.613281 7.371094 -17.933594 7.628906 -18.289062 C 7.824219 -18.640625 8.082031 -18.964844 8.339844 -19.285156 C 8.46875 -19.480469 8.53125 -19.609375 8.757812 -19.800781 C 8.820312 -19.898438 8.949219 -19.992188 9.015625 -20.058594 L 9.5625 -20.765625 C 10.269531 -21.347656 10.980469 -22.152344 11.6875 -22.34375 C 11.6875 -22.3125 11.71875 -22.3125 11.75 -22.3125 C 12.007812 -21.734375 11.460938 -20.316406 10.945312 -19.640625 C 10.945312 -19.480469 10.722656 -19.285156 10.625 -19.125 C 10.59375 -19.09375 10.625 -19.027344 10.65625 -18.964844 C 10.625 -18.996094 10.59375 -18.964844 10.496094 -18.929688 C 10.464844 -18.800781 10.304688 -18.675781 10.207031 -18.578125 C 10.140625 -18.449219 10.140625 -18.351562 10.078125 -18.253906 C 10.046875 -18.09375 10.078125 -17.996094 9.882812 -18.03125 C 9.882812 -17.835938 9.820312 -17.707031 9.660156 -17.613281 C 9.59375 -17.546875 9.496094 -17.386719 9.496094 -17.289062 C 9.402344 -16.933594 9.046875 -16.675781 8.886719 -16.386719 C 8.53125 -15.839844 8.113281 -15.324219 7.726562 -14.808594 C 7.148438 -14.070312 6.664062 -13.328125 6.054688 -12.621094 C 5.441406 -11.914062 4.863281 -11.300781 4.28125 -10.59375 Z M 4.28125 -10.59375" transform="translate(166.758 35.077)"/></g></g></g><g><g><g><path d="M 12.203125 -4.28125 L 12.074219 -4.570312 L 11.976562 -4.636719 C 11.65625 -4.441406 11.398438 -4.28125 11.171875 -4.089844 C 10.429688 -3.605469 10.496094 -3.671875 9.722656 -3.1875 C 9.273438 -2.867188 8.789062 -2.574219 8.371094 -2.316406 C 7.921875 -1.996094 7.40625 -1.609375 6.890625 -1.382812 C 6.761719 -1.320312 6.632812 -1.320312 6.535156 -1.289062 C 6.4375 -1.253906 6.375 -1.253906 6.308594 -1.289062 C 6.148438 -1.382812 6.054688 -1.511719 6.019531 -1.640625 C 5.828125 -2.09375 5.828125 -2.574219 5.925781 -3.027344 C 5.957031 -3.089844 5.957031 -3.15625 5.988281 -3.1875 C 6.085938 -3.445312 6.054688 -3.800781 6.054688 -3.800781 C 5.988281 -4.023438 5.859375 -4.183594 5.667969 -4.25 C 5.28125 -4.28125 5.054688 -4.023438 4.796875 -3.992188 C 4.957031 -4.3125 5.214844 -4.605469 5.121094 -5.054688 C 4.992188 -5.796875 4.21875 -5.925781 3.542969 -6.054688 C 2.929688 -5.988281 2.382812 -5.601562 1.996094 -5.183594 C 1.609375 -4.699219 1.191406 -4.3125 0.835938 -3.765625 C 0.773438 -3.703125 0.707031 -3.542969 0.578125 -3.378906 L 0.355469 -2.996094 C 0.289062 -2.769531 0.191406 -2.609375 0.160156 -2.414062 C 0.160156 -2.382812 0.160156 -2.382812 0.128906 -2.351562 C 0.0625 -2.15625 0 -1.996094 -0.0976562 -1.769531 C -0.226562 -1.289062 -0.128906 -0.871094 0.160156 -0.484375 C 0.355469 -0.386719 0.613281 -0.226562 0.675781 -0.160156 C 0.773438 -0.128906 0.871094 -0.128906 0.933594 -0.128906 C 1.417969 0.0625 1.964844 0.0625 2.480469 -0.191406 C 2.996094 -0.417969 3.507812 -0.835938 3.894531 -1.125 C 3.960938 -1.160156 3.992188 -1.253906 4.058594 -1.320312 C 4.28125 -1.320312 4.28125 -1.640625 4.507812 -1.769531 C 4.539062 -1.707031 4.539062 -1.640625 4.605469 -1.609375 C 4.699219 -1.449219 4.667969 -1.382812 4.863281 -1.191406 C 4.992188 -0.902344 5.214844 -0.773438 5.410156 -0.515625 C 5.503906 -0.484375 5.570312 -0.355469 5.667969 -0.320312 C 5.730469 -0.257812 5.925781 -0.257812 5.988281 -0.226562 C 6.117188 -0.191406 6.40625 -0.257812 6.535156 -0.257812 C 6.632812 -0.257812 6.792969 -0.320312 6.824219 -0.320312 C 6.921875 -0.320312 7.082031 -0.386719 7.148438 -0.417969 C 7.308594 -0.515625 7.40625 -0.484375 7.597656 -0.578125 C 7.921875 -0.804688 8.210938 -0.871094 8.46875 -1.160156 L 9.242188 -1.738281 L 9.722656 -2.15625 C 9.820312 -2.1875 10.046875 -2.445312 10.078125 -2.480469 C 10.238281 -2.542969 10.367188 -2.703125 10.464844 -2.800781 C 10.558594 -2.867188 10.785156 -2.960938 10.945312 -3.089844 C 11.367188 -3.378906 11.878906 -3.800781 12.203125 -4.28125 Z M 4.347656 -3.378906 C 3.863281 -2.867188 3.636719 -2.480469 3.15625 -1.964844 C 2.832031 -1.609375 2.542969 -1.382812 2.125 -1.222656 C 1.804688 -1.09375 1.222656 -1.0625 0.871094 -1.0625 C 1.03125 -1.707031 1.320312 -2.253906 1.609375 -2.769531 C 1.964844 -3.378906 3.089844 -4.894531 4.058594 -5.054688 C 4.023438 -5.023438 3.765625 -3.605469 4.476562 -3.542969 L 4.507812 -3.542969 C 4.507812 -3.542969 4.378906 -3.378906 4.347656 -3.378906 Z M 4.347656 -3.378906" transform="translate(176.767 35.077)"/></g></g></g><g><g><g><path d="M 6.761719 -10.625 C 6.953125 -10.65625 7.371094 -10.722656 7.5 -10.625 C 7.726562 -10.722656 8.050781 -10.722656 8.242188 -10.722656 L 8.308594 -10.753906 C 8.433594 -10.945312 8.917969 -10.980469 8.820312 -11.300781 C 8.726562 -11.367188 8.5625 -11.238281 8.5 -11.203125 C 7.824219 -11.074219 7.628906 -11.109375 6.085938 -11.171875 C 5.957031 -11.140625 5.699219 -11.238281 5.246094 -11.269531 C 5.3125 -11.621094 5.410156 -11.785156 5.632812 -12.429688 C 5.796875 -12.847656 6.054688 -13.265625 6.148438 -13.652344 C 6.472656 -14.199219 6.730469 -14.777344 6.988281 -15.390625 C 7.082031 -15.617188 7.179688 -15.777344 6.921875 -15.9375 C 6.859375 -16.035156 6.730469 -16.097656 6.695312 -16.195312 C 6.664062 -16.453125 6.375 -16.515625 6.117188 -16.675781 C 6.054688 -16.710938 5.988281 -16.710938 5.957031 -16.773438 C 5.828125 -16.804688 5.730469 -16.773438 5.667969 -16.582031 C 5.601562 -16.355469 5.472656 -16.035156 5.410156 -15.808594 C 5.3125 -15.648438 5.214844 -15.582031 5.214844 -15.453125 C 5.023438 -15.066406 4.957031 -14.714844 4.796875 -14.359375 C 4.699219 -13.972656 4.507812 -13.617188 4.410156 -13.296875 C 4.28125 -12.976562 4.152344 -12.683594 4.058594 -12.363281 C 3.863281 -12.042969 3.832031 -11.71875 3.636719 -11.398438 C 3.445312 -11.398438 3.21875 -11.398438 2.929688 -11.367188 L 2.316406 -11.429688 C 2.09375 -11.527344 1.867188 -11.460938 1.675781 -11.367188 C 1.609375 -11.332031 1.511719 -11.367188 1.480469 -11.367188 C 1.480469 -11.367188 1.351562 -11.398438 1.191406 -11.203125 C 1.03125 -11.140625 0.964844 -10.945312 0.964844 -10.851562 C 1 -10.558594 1.351562 -10.496094 1.738281 -10.398438 C 2.351562 -10.335938 2.800781 -10.304688 3.21875 -10.304688 L 2.898438 -9.304688 L 1.867188 -6.085938 C 1.898438 -6.054688 1.898438 -5.988281 1.933594 -5.957031 L 1.867188 -5.957031 C 1.804688 -5.796875 1.707031 -5.699219 1.707031 -5.570312 C 1.578125 -5.152344 1.578125 -4.796875 1.449219 -4.441406 L 1.222656 -3.542969 C 1.160156 -3.15625 1.03125 -2.769531 1.0625 -2.382812 C 1 -1.707031 0.902344 -1.0625 1.03125 -0.417969 C 1.160156 0.226562 1.289062 0.871094 1.640625 1.382812 C 1.707031 1.449219 1.769531 1.511719 1.835938 1.609375 C 2.09375 1.898438 2.222656 2.09375 2.511719 2.1875 C 2.960938 2.480469 3.058594 2.445312 3.542969 2.414062 L 3.476562 2.414062 C 3.671875 2.414062 3.734375 2.382812 3.800781 2.285156 C 3.960938 2.027344 4.25 1.835938 4.152344 1.511719 C 4.152344 1.511719 3.765625 1.707031 3.507812 1.675781 C 3.21875 1.707031 3.1875 1.675781 2.898438 1.511719 L 2.671875 1.253906 C 2.609375 1.191406 2.480469 1.0625 2.480469 0.835938 C 2.414062 0.613281 2.351562 0.386719 2.382812 0.160156 C 2.382812 0.03125 2.382812 -0.0625 2.253906 -0.0976562 C 2.382812 -0.160156 2.285156 -0.191406 2.222656 -0.257812 C 2.382812 -0.289062 2.351562 -0.871094 2.222656 -1.03125 C 2.285156 -1.125 2.351562 -1.253906 2.382812 -1.351562 C 2.316406 -1.382812 2.285156 -1.417969 2.316406 -1.417969 C 2.351562 -1.449219 2.382812 -1.511719 2.382812 -1.578125 C 2.382812 -1.835938 2.414062 -2.0625 2.511719 -2.351562 C 2.480469 -2.445312 2.511719 -2.609375 2.542969 -2.738281 C 2.542969 -2.832031 2.640625 -2.960938 2.640625 -3.027344 C 2.640625 -3.1875 2.738281 -3.378906 2.640625 -3.542969 C 2.703125 -3.636719 2.800781 -3.734375 2.832031 -3.832031 C 2.867188 -4.183594 2.996094 -4.539062 3.089844 -4.894531 C 3.089844 -5.085938 3.1875 -5.28125 3.285156 -5.472656 C 3.316406 -5.761719 3.476562 -6.085938 3.542969 -6.40625 C 3.574219 -6.535156 3.636719 -6.664062 3.703125 -6.824219 C 3.765625 -7.019531 3.734375 -7.210938 3.832031 -7.4375 C 3.832031 -7.5 3.800781 -7.566406 3.832031 -7.566406 C 4.023438 -7.628906 3.992188 -7.757812 3.960938 -7.824219 C 3.929688 -7.886719 3.992188 -7.953125 3.992188 -8.015625 C 4.121094 -8.144531 4.21875 -8.371094 4.183594 -8.5 C 4.25 -8.597656 4.3125 -8.660156 4.28125 -8.726562 C 4.21875 -8.855469 4.347656 -9.113281 4.476562 -9.175781 L 4.828125 -10.269531 L 5.183594 -10.269531 C 5.472656 -10.304688 5.957031 -10.269531 6.308594 -10.269531 C 6.730469 -10.304688 7.019531 -10.304688 7.179688 -10.304688 C 7.46875 -10.304688 7.757812 -10.335938 7.855469 -10.398438 L 8.339844 -10.464844 C 8.402344 -10.496094 8.433594 -10.527344 8.339844 -10.59375 C 7.695312 -10.527344 7.4375 -10.527344 6.183594 -10.496094 L 6.214844 -10.558594 Z M 6.761719 -10.625" transform="translate(187.195 35.077)"/></g></g></g><g clip-path="url(#a)"><g><g><g><path d="M 2.671875 -7.050781 C 2.867188 -6.921875 3.058594 -6.921875 3.21875 -6.988281 C 3.507812 -7.179688 3.800781 -7.371094 3.929688 -7.726562 C 4.058594 -8.082031 3.929688 -8.433594 3.832031 -8.757812 C 3.765625 -8.984375 3.574219 -9.078125 3.21875 -9.046875 C 3.21875 -9.046875 3.089844 -9.046875 3.058594 -9.015625 C 2.640625 -8.789062 2.285156 -8.5625 2.125 -8.082031 C 2.0625 -7.757812 2.125 -7.5 2.316406 -7.277344 C 2.414062 -7.179688 2.574219 -7.117188 2.671875 -7.050781 Z M 7.019531 -3.605469 C 7.179688 -3.894531 7.148438 -4.089844 7.082031 -4.152344 C 6.664062 -3.734375 6.246094 -3.378906 5.859375 -3.027344 C 5.375 -2.574219 4.925781 -2.0625 4.410156 -1.609375 C 3.929688 -1.125 3.347656 -0.675781 2.832031 -0.226562 C 2.574219 0 2.285156 0.128906 1.933594 0.226562 C 1.964844 -0.0976562 2.0625 -0.386719 2.0625 -0.675781 C 2.09375 -1 2.285156 -1.289062 2.1875 -1.578125 C 2.1875 -1.640625 2.222656 -1.675781 2.253906 -1.738281 C 2.285156 -1.867188 2.351562 -1.996094 2.414062 -2.125 C 2.542969 -2.542969 2.671875 -2.929688 2.769531 -3.316406 C 2.832031 -3.476562 2.898438 -3.636719 2.898438 -3.832031 C 2.929688 -3.992188 2.929688 -4.183594 2.867188 -4.3125 C 2.800781 -4.441406 2.640625 -4.570312 2.511719 -4.667969 C 2.414062 -4.828125 2.1875 -4.925781 2.09375 -5.085938 C 1.996094 -5.246094 1.898438 -5.183594 1.804688 -5.152344 C 1.675781 -5.152344 1.640625 -5.054688 1.675781 -4.925781 L 1.675781 -4.667969 C 1.511719 -4.058594 1.351562 -3.507812 1.222656 -2.929688 C 1.09375 -2.511719 0.964844 -2.09375 0.902344 -1.675781 C 0.742188 -1.09375 0.613281 -0.484375 0.675781 0.0625 C 0.707031 0.191406 0.804688 0.257812 0.835938 0.386719 C 0.902344 0.449219 0.964844 0.546875 1 0.644531 C 1.03125 0.707031 1.03125 0.804688 1.09375 0.835938 C 1.320312 1 1.449219 1.289062 1.769531 1.351562 C 1.996094 1.417969 2.15625 1.511719 2.414062 1.449219 C 2.640625 1.320312 2.867188 1.222656 3.058594 1.125 C 3.25 1.0625 3.445312 1.03125 3.574219 0.902344 C 3.765625 0.773438 3.929688 0.644531 4.058594 0.484375 C 4.25 0.226562 4.476562 -0.03125 4.734375 -0.191406 L 4.894531 -0.355469 C 4.957031 -0.417969 4.992188 -0.515625 5.054688 -0.578125 L 5.410156 -1.09375 C 5.859375 -1.738281 5.925781 -2.027344 6.054688 -2.1875 C 6.246094 -2.414062 6.953125 -3.542969 6.988281 -3.574219 Z M 7.019531 -3.605469" transform="translate(193.954 35.077)"/></g></g></g></g></svg>